<?xml version="1.0" encoding="utf-8"?>
<!-- Generator: Adobe Illustrator 15.1.0, SVG Export Plug-In  -->
<!DOCTYPE svg PUBLIC "-//W3C//DTD SVG 1.1//EN" "http://www.w3.org/Graphics/SVG/1.1/DTD/svg11.dtd" [
	<!ENTITY ns_flows "http://ns.adobe.com/Flows/1.0/">
]>
<svg version="1.1"
	 xmlns="http://www.w3.org/2000/svg" xmlns:xlink="http://www.w3.org/1999/xlink" xmlns:a="http://ns.adobe.com/AdobeSVGViewerExtensions/3.0/"
	 x="0px" y="0px" width="1366px" height="203px" viewBox="-20.07 -11 1366 203" enable-background="new -20.07 -11 1366 203"
	 xml:space="preserve">
<defs>
</defs>
<polygon fill="#FF6600" points="41.431,160.723 31.674,179.362 20.412,161.594 "/>
<polygon fill="#0033CC" points="63.115,154.749 57.644,175.063 42.789,160.168 "/>
<polygon fill="#00CC00" points="84.182,147.168 80.332,167.85 64.347,154.174 "/>
<polygon fill="#FFCC33" points="104.669,137.424 103.348,158.42 85.827,146.777 "/>
<polygon fill="#FF3333" points="124.396,124.963 125.123,145.987 106.552,136.104 "/>
<polygon fill="#FF6600" points="142.109,110.633 144.837,131.492 125.409,123.425 "/>
<polygon fill="#0033CC" points="157.975,94.362 163.885,114.553 143.446,109.576 "/>
<polygon fill="#00CC00" points="172.053,75.402 180.689,94.585 159.759,92.472 "/>
<polygon fill="#FFCC33" points="185.363,55.481 194.946,74.209 173.936,73.144 "/>
<polygon fill="#FF3333" points="196.013,34.739 207.396,52.43 186.384,53.443 "/>
<polygon fill="#FF6600" points="1295.378,160.723 1305.135,179.362 1316.396,161.594 "/>
<polygon fill="#0033CC" points="1273.693,154.749 1279.164,175.063 1294.02,160.168 "/>
<polygon fill="#00CC00" points="1252.627,147.168 1256.477,167.85 1272.462,154.174 "/>
<polygon fill="#FFCC33" points="1232.139,137.424 1233.461,158.42 1250.982,146.777 "/>
<polygon fill="#FF3333" points="1212.413,124.963 1211.686,145.987 1230.257,136.104 "/>
<polygon fill="#FF6600" points="1194.699,110.633 1191.972,131.492 1211.4,123.425 "/>
<polygon fill="#0033CC" points="1178.834,94.362 1172.924,114.553 1193.363,109.576 "/>
<polygon fill="#00CC00" points="1164.756,75.402 1156.119,94.585 1177.05,92.472 "/>
<polygon fill="#FFCC33" points="1151.445,55.481 1141.862,74.209 1162.873,73.144 "/>
<polygon fill="#FF3333" points="1140.795,34.739 1129.412,52.43 1150.424,53.443 "/>
<path fill="#0033CC" d="M33.859,0c0,9.002-7.58,16.344-16.93,16.344S0,9.002,0,0H33.859z"/>
<path fill="#FF6600" d="M71.859,0c0,9.002-7.58,16.344-16.93,16.344S38,9.002,38,0H71.859z"/>
<path fill="#00CC00" d="M109.859,0c0,9.002-7.58,16.344-16.93,16.344S76,9.002,76,0H109.859z"/>
<path fill="#FFCC33" d="M147.859,0c0,9.002-7.58,16.344-16.93,16.344S114,9.002,114,0H147.859z"/>
<path fill="#FF3333" d="M185.859,0c0,9.002-7.58,16.344-16.93,16.344S152,9.002,152,0H185.859z"/>
<path fill="#0033CC" d="M223.859,0c0,9.002-7.58,16.344-16.93,16.344S190,9.002,190,0H223.859z"/>
<path fill="#00CC00" d="M261.859,0c0,9.002-7.58,16.344-16.93,16.344S228,9.002,228,0H261.859z"/>
<path fill="#FFCC33" d="M299.859,0c0,9.002-7.58,16.344-16.93,16.344S266,9.002,266,0H299.859z"/>
<path fill="#FF3333" d="M337.859,0c0,9.002-7.58,16.344-16.93,16.344S304,9.002,304,0H337.859z"/>
<path fill="#FF6600" d="M375.859,0c0,9.002-7.58,16.344-16.93,16.344S342,9.002,342,0H375.859z"/>
<path fill="#0033CC" d="M413.859,0c0,9.002-7.58,16.344-16.93,16.344S380,9.002,380,0H413.859z"/>
<path fill="#00CC00" d="M451.859,0c0,9.002-7.58,16.344-16.93,16.344S418,9.002,418,0H451.859z"/>
<path fill="#FFCC33" d="M489.859,0c0,9.002-7.58,16.344-16.93,16.344S456,9.002,456,0H489.859z"/>
<path fill="#FF6600" d="M527.859,0c0,9.002-7.58,16.344-16.93,16.344S494,9.002,494,0H527.859z"/>
<path fill="#0033CC" d="M565.859,0c0,9.002-7.58,16.344-16.93,16.344S532,9.002,532,0H565.859z"/>
<path fill="#00CC00" d="M603.859,0c0,9.002-7.58,16.344-16.93,16.344S570,9.002,570,0H603.859z"/>
<path fill="#FFCC33" d="M641.859,0c0,9.002-7.58,16.344-16.93,16.344S608,9.002,608,0H641.859z"/>
<path fill="#FF3333" d="M679.859,0c0,9.002-7.58,16.344-16.93,16.344S646,9.002,646,0H679.859z"/>
<path fill="#FF6600" d="M717.859,0c0,9.002-7.579,16.344-16.929,16.344c-9.351,0-16.93-7.342-16.93-16.344H717.859z"/>
<path fill="#0033CC" d="M755.859,0c0,9.002-7.579,16.344-16.929,16.344c-9.351,0-16.93-7.342-16.93-16.344H755.859z"/>
<path fill="#00CC00" d="M793.859,0c0,9.002-7.579,16.344-16.929,16.344c-9.351,0-16.93-7.342-16.93-16.344H793.859z"/>
<path fill="#FFCC33" d="M831.859,0c0,9.002-7.579,16.344-16.929,16.344c-9.351,0-16.93-7.342-16.93-16.344H831.859z"/>
<path fill="#FF3333" d="M869.859,0c0,9.002-7.579,16.344-16.929,16.344c-9.351,0-16.93-7.342-16.93-16.344H869.859z"/>
<path fill="#FF6600" d="M907.859,0c0,9.002-7.579,16.344-16.929,16.344c-9.351,0-16.93-7.342-16.93-16.344H907.859z"/>
<path fill="#0033CC" d="M945.859,0c0,9.002-7.579,16.344-16.929,16.344c-9.351,0-16.93-7.342-16.93-16.344H945.859z"/>
<path fill="#00CC00" d="M983.859,0c0,9.002-7.579,16.344-16.929,16.344c-9.351,0-16.93-7.342-16.93-16.344H983.859z"/>
<path fill="#FFCC33" d="M1021.859,0c0,9.002-7.579,16.344-16.929,16.344c-9.351,0-16.93-7.342-16.93-16.344H1021.859z"/>
<path fill="#FF3333" d="M1059.859,0c0,9.002-7.579,16.344-16.929,16.344c-9.351,0-16.93-7.342-16.93-16.344H1059.859z"/>
<path fill="#00CC00" d="M1097.859,0c0,9.002-7.579,16.344-16.929,16.344c-9.351,0-16.93-7.342-16.93-16.344H1097.859z"/>
<path fill="#FFCC33" d="M1135.859,0c0,9.002-7.579,16.344-16.929,16.344c-9.351,0-16.93-7.342-16.93-16.344H1135.859z"/>
<path fill="#FF3333" d="M1173.859,0c0,9.002-7.579,16.344-16.929,16.344c-9.351,0-16.93-7.342-16.93-16.344H1173.859z"/>
<path fill="#0033CC" d="M1211.859,0c0,9.002-7.579,16.344-16.929,16.344c-9.351,0-16.93-7.342-16.93-16.344H1211.859z"/>
<path fill="#FF6600" d="M1249.859,0c0,9.002-7.579,16.344-16.929,16.344c-9.351,0-16.93-7.342-16.93-16.344H1249.859z"/>
<path fill="#00CC00" d="M1287.859,0c0,9.002-7.579,16.344-16.929,16.344c-9.351,0-16.93-7.342-16.93-16.344H1287.859z"/>
<path fill="#FFCC33" d="M1325.859,0c0,9.002-7.579,16.344-16.929,16.344c-9.351,0-16.93-7.342-16.93-16.344H1325.859z"/>
</svg>
