<?xml version="1.0" encoding="utf-8"?>
<!-- Generator: Adobe Illustrator 15.1.0, SVG Export Plug-In  -->
<!DOCTYPE svg PUBLIC "-//W3C//DTD SVG 1.1//EN" "http://www.w3.org/Graphics/SVG/1.1/DTD/svg11.dtd" [
	<!ENTITY ns_flows "http://ns.adobe.com/Flows/1.0/">
]>
<svg version="1.1"
	 xmlns="http://www.w3.org/2000/svg" xmlns:xlink="http://www.w3.org/1999/xlink" xmlns:a="http://ns.adobe.com/AdobeSVGViewerExtensions/3.0/"
	 x="0px" y="0px" width="575px" height="77px" viewBox="-11.304 -9.174 575 77" enable-background="new -11.304 -9.174 575 77"
	 xml:space="preserve">
<defs>
</defs>
<path fill="#333333" d="M4.984,39.482l4.418,1.813L4.871,52.283L0,50.13L4.984,39.482z M11.215,33.705l0.227-5.891l4.984,0.113
	l-0.34,5.778l9.855,0.113l0.227,4.191l-10.195-0.34l-0.227,15.293l-5.551-0.113l0.793-15.066l-10.082,0.68v-4.645L11.215,33.705z
	 M21.297,39.482l2.379,5.664l2.152,5.324l-4.645,1.473l-4.305-10.988L21.297,39.482z M21.75,27.587l1.926,5.211l-2.945,0.68
	l-1.586-5.438L21.75,27.587z M26.848,32.005l-2.719,0.793l-1.926-5.211l2.605-0.68L26.848,32.005z"/>
<path fill="#333333" d="M47.578,53.416l-4.984-2.039c1.813-2.719,3.096-4.832,3.852-6.344c1.057-2.039,2.039-4.078,2.945-6.117
	c-3.928,0.303-7.023,0.605-9.289,0.906c-2.039,0.303-5.438,0.869-10.195,1.699l0.227-4.984c10.723-1.51,17.143-2.266,19.258-2.266
	c3.775,0,5.664,1.398,5.664,4.191c0,1.436-0.756,3.588-2.266,6.457C51.73,47.035,49.994,49.867,47.578,53.416z M53.129,28.04v4.192
	c-3.777,0-7.137,0.076-10.082,0.227c-1.889,0.076-5.74,0.492-11.555,1.246l0.227-4.872c3.852-0.301,6.834-0.49,8.949-0.566
	C44.367,28.116,48.521,28.04,53.129,28.04z"/>
<path fill="#333333" d="M62.645,27.474l9.516,4.985l-3.172,4.871l-9.402-5.664L62.645,27.474z M81.789,36.31l2.492,4.531
	L64.344,53.642l-3.512-4.758L81.789,36.31z"/>
<path fill="#333333" d="M87.906,35.97l25.262-0.34v3.965l-10.875,0.227l2.832,1.02l-5.211,12.461l-5.551-1.813l5.664-11.441
	l-12.234,1.359L87.906,35.97z M111.016,27.927v4.192c-4.004,0.152-7.629,0.34-10.875,0.566c-2.342,0.152-5.703,0.453-10.082,0.906
	v-4.985L111.016,27.927z"/>
<path fill="#333333" d="M135.258,34.837l2.379,2.605l-4.758,3.512l-0.68,12.008l-4.305,0.113l0.906-9.063l-5.098,4.305l-2.719-3.398
	L135.258,34.837z"/>
<path fill="#333333" d="M167.543,42.994l-4.984-2.266l3.512-8.043c-3.172,0.303-6.043,0.643-8.609,1.02
	c-2.418,0.379-6.004,1.096-10.762,2.152l-0.566-5.438l10.195-1.7c4.305-0.68,7.551-0.943,9.742-0.793
	c2.34,0.227,3.926,1.209,4.758,2.946c0.68,1.436,0.453,3.475-0.68,6.117L167.543,42.994z M160.52,36.99l-5.098,16.086l-5.438-1.926
	l5.324-15.293L160.52,36.99z"/>
<path fill="#333333" d="M175.02,35.064l0.566-7.024l9.742-0.453c5.588-0.227,9.023-0.301,10.309-0.227
	c1.736,0.152,2.869,0.643,3.398,1.473c0.453,0.68,0.754,2.379,0.906,5.098l0.566,11.328l0.113,7.703h-8.949l-10.195,0.566
	l-7.023,1.02L175.02,35.064z M190.313,49.564l5.551-0.113L195.41,36.65l-0.453-5.664c-3.248,0-6.043,0.076-8.383,0.227
	c-1.738,0.152-4.004,0.379-6.797,0.68l-0.453,17.898L190.313,49.564z M180.117,39.029l0.113-4.191h7.816l-0.34-3.059h4.418
	l0.227,3.059h2.605l0.227,3.398l-2.605-0.113l0.227,6.23c0.074,1.738-0.152,2.908-0.68,3.512c-0.453,0.605-1.133,0.945-2.039,1.02
	c-1.059,0.076-2.682,0.113-4.871,0.113l-1.359-4.305h4.418l-0.113-6.457L180.117,39.029z M181.477,41.634
	c-0.152-0.754,0.037-1.434,0.566-2.039c0.377-0.453,0.943-0.68,1.699-0.68c0.68,0,1.32,0.152,1.926,0.453
	c0.604,0.303,1.02,0.756,1.246,1.359c0.301,0.756,0.264,1.473-0.113,2.152c-0.379,0.756-1.02,1.172-1.926,1.246
	c-0.68,0.076-1.322-0.074-1.926-0.453C182.117,43.146,181.627,42.466,181.477,41.634z"/>
<path fill="#333333" d="M208.551,26.907l0.34-0.113l3.512,1.586l-2.039,3.512l-0.566,12.688l6.117-7.93l-5.098,0.68l-0.113-0.113
	l0.34-4.758h6.91l0.113-5.665h4.645l-0.113,5.665h7.363l-0.113,3.965h-6.344l6.91,7.93l-2.266,4.191l-0.227-0.113l-1.926-2.152
	v2.152l-3.625-0.113l0.113,5.891l-5.098-0.113l0.113-5.551l-3.738,0.34h-0.113v-1.813l-1.133,1.699l-2.605-2.379v7.703l-4.418,0.227
	l-0.113-0.227l0.566-13.707l-1.133,2.492l-0.227-0.113l-2.039-4.531L208.551,26.907z M217.613,44.919l0.113-3.512l-2.605,3.512
	H217.613z M222.484,45.033l2.379-0.113l-2.492-2.832v2.832L222.484,45.033z"/>
<path fill="#FFF000" stroke="#425EA7" stroke-width="5" stroke-miterlimit="10" d="M284.026,33.175
	c-0.216-5.833-0.432-12.89-0.432-19.947h-0.145c-1.584,6.192-3.6,13.105-5.473,18.794l-5.904,18.938h-8.568l-5.185-18.723
	c-1.584-5.76-3.168-12.672-4.393-19.009h-0.144c-0.216,6.553-0.504,14.041-0.792,20.089l-0.936,18.434h-10.153l3.096-48.532h14.617
	l4.752,16.201c1.584,5.617,3.024,11.665,4.104,17.354h0.288c1.296-5.617,2.952-12.025,4.608-17.425l5.112-16.13h14.402l2.592,48.532
	h-10.657L284.026,33.175z"/>
<path fill="#FFF000" stroke="#425EA7" stroke-width="5" stroke-miterlimit="10" d="M339.466,50.457
	c-1.944,0.936-6.553,2.088-12.385,2.088c-16.777,0-25.419-10.514-25.419-24.338c0-16.562,11.81-25.706,26.499-25.706
	c5.688,0,10.008,1.08,11.953,2.16l-2.305,8.641c-2.16-0.937-5.257-1.801-9.217-1.801c-8.641,0-15.41,5.257-15.41,16.058
	c0,9.721,5.762,15.842,15.482,15.842c3.384,0,6.984-0.648,9.217-1.584L339.466,50.457z"/>
<path fill="#FFF000" stroke="#425EA7" stroke-width="5" stroke-miterlimit="10" d="M382.305,50.457
	c-1.944,0.936-6.553,2.088-12.386,2.088c-16.777,0-25.418-10.514-25.418-24.338c0-16.562,11.809-25.706,26.498-25.706
	c5.689,0,10.01,1.08,11.953,2.16l-2.304,8.641c-2.16-0.937-5.257-1.801-9.217-1.801c-8.642,0-15.409,5.257-15.409,16.058
	c0,9.721,5.76,15.842,15.48,15.842c3.385,0,6.985-0.648,9.217-1.584L382.305,50.457z"/>
<path fill="#333333" d="M419.823,46.166l-3.965,3.852c-2.492-3.398-4.494-5.928-6.004-7.59c-1.359-1.51-3.324-3.549-5.891-6.117
	l-6.57,9.742l-4.191-3.285c1.057-1.66,2.113-3.246,3.172-4.758c1.207-1.813,2.416-3.398,3.625-4.758
	c1.207-1.359,2.529-2.113,3.965-2.266c1.51-0.15,3.02,0.566,4.531,2.152l2.832,2.945L419.823,46.166z"/>
<path fill="#333333" d="M431.831,28.493l5.211-0.453l1.02,4.079l8.723-0.113l0.113,4.078l-8.156,0.68l0.34,2.832
	c3.322,0.68,6.457,1.775,9.402,3.285l-2.605,4.984l-6.344-3.059c0.15,2.266-0.113,3.928-0.793,4.984
	c-0.756,1.207-1.965,2.113-3.625,2.719c-1.889,0.68-3.701,0.83-5.438,0.453c-2.492-0.529-4.154-1.889-4.984-4.078
	c-0.379-0.98-0.492-2-0.34-3.059c0.15-1.057,0.641-2.113,1.473-3.172c0.83-1.057,1.963-1.887,3.398-2.492
	c1.057-0.453,2.719-0.793,4.984-1.02L431.831,28.493z M435.003,43.787c-0.303-0.074-0.832-0.113-1.586-0.113
	c-1.662,0-2.795,0.303-3.398,0.906c-0.605,0.605-0.906,1.285-0.906,2.039c0,1.285,0.641,1.926,1.926,1.926
	c1.207,0,2.189-0.377,2.945-1.133C434.89,46.505,435.229,45.298,435.003,43.787z"/>
<path fill="#333333" d="M467.741,53.869l-3.965-3.398c1.359-0.98,2.719-2,4.078-3.059c1.736-1.359,2.832-2.756,3.285-4.191
	c0.301-0.98,0.301-1.85,0-2.605c-0.379-0.83-1.02-1.396-1.926-1.699c-1.359-0.453-3.135-0.301-5.324,0.453
	c-2.342,0.756-5.137,2.152-8.383,4.191l-2.719-3.852c3.322-2.189,5.928-3.586,7.816-4.191c2.719-0.906,5.211-1.246,7.477-1.02
	c3.322,0.303,5.701,1.586,7.137,3.852c1.207,1.965,1.51,3.965,0.906,6.004c-0.529,1.889-1.813,3.814-3.852,5.777
	C471.366,51.037,469.854,52.283,467.741,53.869z M471.819,29.853l-1.02,3.512c-2.568-0.604-4.645-1.02-6.23-1.246
	c-1.133-0.15-3.512-0.377-7.137-0.68l1.02-3.512c3.172,0.152,5.248,0.303,6.23,0.453C465.815,28.532,468.194,29.022,471.819,29.853z
	"/>
<path fill="#333333" d="M486.319,41.974c0.527,2.342,1.283,3.891,2.266,4.645c1.207,0.982,3.246,1.398,6.117,1.246
	c1.813-0.074,3.398-0.34,4.758-0.793c0.83-0.301,2.076-0.867,3.738-1.699l2.605,4.984c-2.871,1.207-5.174,1.963-6.91,2.266
	c-1.965,0.301-4.23,0.377-6.797,0.227c-1.813-0.152-3.324-0.453-4.531-0.906c-1.586-0.605-2.908-1.586-3.965-2.945
	c-0.982-1.207-1.813-3.172-2.492-5.891L486.319,41.974z M501.612,40.162l-5.098-1.246c0.377-0.98,0.68-1.887,0.906-2.719
	c0.227-0.83,0.453-1.963,0.68-3.398c-2.719,0.152-4.797,0.34-6.23,0.566c-1.813,0.303-4.268,0.869-7.363,1.699l-0.906-4.531
	c5.438-1.284,9.553-2,12.348-2.153c1.66-0.074,3.02,0,4.078,0.227c1.133,0.227,1.926,0.68,2.379,1.36
	c0.604,0.832,0.906,1.889,0.906,3.172C503.312,34.876,502.745,37.216,501.612,40.162z"/>
<path fill="#333333" d="M516.452,37.33l13.141-9.743l4.078,3.286l-9.402,5.777l10.648-0.34l0.113,3.738
	c-2.645,0.076-4.871,0.189-6.684,0.34c-3.021,0.303-5.551,1.246-7.59,2.832c-1.436,1.133-2.078,2.266-1.926,3.398
	c0.15,1.359,1.207,2.078,3.172,2.152c2.492,0.076,5.928-0.604,10.309-2.039l1.586,3.965c-3.625,1.359-6.496,2.152-8.609,2.379
	c-5.363,0.604-8.988-0.34-10.875-2.832c-1.059-1.359-1.359-2.793-0.906-4.305c0.227-0.83,0.68-1.66,1.359-2.492
	c0.301-0.377,0.867-0.943,1.699-1.699l-6.23,1.359l-0.34-4.984L516.452,37.33z M515.093,27.36l5.438,4.418l-3.285,2.832
	l-5.777-4.418L515.093,27.36z"/>
<path fill="#333333" d="M542.271,47.751c0-0.754,0.301-1.434,0.906-2.039c0.527-0.527,1.17-0.793,1.926-0.793
	c0.754,0,1.434,0.303,2.039,0.906c0.527,0.529,0.793,1.209,0.793,2.039c0,0.756-0.303,1.436-0.906,2.039
	c-0.529,0.529-1.172,0.793-1.926,0.793c-0.756,0-1.436-0.301-2.039-0.906C542.535,49.263,542.271,48.583,542.271,47.751z
	 M545.783,27.247l5.891,1.02c-0.529,1.965-1.172,4.495-1.926,7.59c-0.529,2.115-1.133,4.984-1.813,8.609l-4.531-0.793
	L545.783,27.247z"/>
</svg>
